<svg width="132" height="16" viewBox="0 0 132 16" fill="none" xmlns="http://www.w3.org/2000/svg">
<g clip-path="url(#clip0_5_25)">
<path fill-rule="evenodd" clip-rule="evenodd" d="M3.5 0.316467C4.05228 0.316467 4.5 0.762255 4.5 1.31216V2.30786H9.50009V1.31216C9.50009 0.762255 9.94781 0.316467 10.5001 0.316467C11.0524 0.316467 11.5001 0.762255 11.5001 1.31216V2.30786H12.5C13.3284 2.30786 14 2.97653 14 3.8014V12.7626C14 13.5875 13.3284 14.2562 12.5 14.2562H1.5C0.671573 14.2562 0 13.5875 0 12.7626V3.8014C0 2.97653 0.671573 2.30786 1.5 2.30786H2.5V1.31216C2.5 0.762255 2.94772 0.316467 3.5 0.316467ZM3.28613 8.46264C3.28613 8.0502 3.62192 7.71587 4.03613 7.71587H7.42954V6.56187C7.42954 6.31017 7.58181 6.08325 7.81536 5.98693C8.0489 5.89061 8.31773 5.94385 8.49648 6.12183L10.4056 8.02275C10.6497 8.26578 10.6497 8.65981 10.4056 8.90284L8.49648 10.8037C8.31773 10.9817 8.0489 11.035 7.81536 10.9386C7.58181 10.8424 7.42953 10.6154 7.42953 10.3637V9.20941H4.03613C3.62192 9.20941 3.28613 8.87507 3.28613 8.46264Z" fill="white"/>
</g>
<path d="M26.6436 12.3165H24.6504L24.6631 10.9454H26.6436C27.181 10.9454 27.6317 10.8269 27.9956 10.5899C28.3595 10.3487 28.6346 10.0038 28.8208 9.55524C29.007 9.10244 29.1001 8.56077 29.1001 7.93024V7.45416C29.1001 6.96751 29.0472 6.53798 28.9414 6.16559C28.8356 5.79319 28.679 5.48004 28.4717 5.22614C28.2686 4.97223 28.0168 4.77968 27.7163 4.6485C27.4159 4.51731 27.071 4.45172 26.6816 4.45172H24.6123V3.07428H26.6816C27.2995 3.07428 27.8623 3.17796 28.3701 3.38531C28.8822 3.59267 29.3244 3.89101 29.6968 4.28033C30.0734 4.66543 30.3612 5.12669 30.5601 5.66412C30.7632 6.20156 30.8647 6.80247 30.8647 7.46686V7.93024C30.8647 8.59039 30.7632 9.1913 30.5601 9.73297C30.3612 10.2704 30.0734 10.7317 29.6968 11.1168C29.3244 11.5019 28.88 11.7981 28.3638 12.0054C27.8475 12.2128 27.2741 12.3165 26.6436 12.3165ZM25.6279 3.07428V12.3165H23.8823V3.07428H25.6279ZM36.0063 10.8565V7.68903C36.0063 7.45628 35.9661 7.25527 35.8857 7.086C35.8053 6.91673 35.6826 6.78554 35.5176 6.69244C35.3525 6.59934 35.1431 6.5528 34.8892 6.5528C34.6649 6.5528 34.4681 6.59088 34.2988 6.66705C34.1338 6.74323 34.0068 6.85114 33.918 6.99078C33.8291 7.1262 33.7847 7.28278 33.7847 7.46051H32.1025C32.1025 7.17698 32.1702 6.90826 32.3057 6.65436C32.4411 6.39622 32.6336 6.1677 32.8833 5.96881C33.1372 5.76569 33.4398 5.60699 33.791 5.49274C34.1465 5.37848 34.5443 5.32135 34.9844 5.32135C35.5049 5.32135 35.9683 5.41022 36.3745 5.58795C36.785 5.76145 37.1066 6.02382 37.3394 6.37506C37.5763 6.7263 37.6948 7.16852 37.6948 7.70172V10.6978C37.6948 11.0406 37.716 11.3347 37.7583 11.5801C37.8049 11.8214 37.8726 12.0308 37.9614 12.2086V12.3165H36.2539C36.1735 12.143 36.1121 11.9229 36.0698 11.6563C36.0275 11.3855 36.0063 11.1189 36.0063 10.8565ZM36.2412 8.13336L36.2539 9.12994H35.1938C34.9315 9.12994 34.7008 9.15745 34.502 9.21246C34.3031 9.26324 34.1401 9.33942 34.0132 9.44098C33.8862 9.53831 33.791 9.6568 33.7275 9.79645C33.6641 9.93186 33.6323 10.0863 33.6323 10.2598C33.6323 10.4291 33.6704 10.5814 33.7466 10.7169C33.827 10.8523 33.9412 10.9602 34.0894 11.0406C34.2417 11.1168 34.4194 11.1548 34.6226 11.1548C34.9188 11.1548 35.1769 11.0956 35.397 10.9771C35.617 10.8544 35.7884 10.7063 35.9111 10.5328C36.0339 10.3593 36.0994 10.1942 36.1079 10.0377L36.5903 10.7613C36.5311 10.9348 36.4422 11.1189 36.3237 11.3135C36.2052 11.5082 36.0529 11.6902 35.8667 11.8594C35.6805 12.0287 35.4562 12.1684 35.1938 12.2784C34.9315 12.3884 34.6268 12.4434 34.2798 12.4434C33.8354 12.4434 33.4377 12.3546 33.0864 12.1768C32.7352 11.9991 32.458 11.7558 32.2549 11.4468C32.0518 11.1379 31.9502 10.7867 31.9502 10.3931C31.9502 10.0292 32.0179 9.70758 32.1533 9.42828C32.2887 9.14899 32.4897 8.91412 32.7563 8.72369C33.0229 8.52903 33.353 8.38304 33.7466 8.28571C34.1444 8.18414 34.5993 8.13336 35.1113 8.13336H36.2412ZM42.4556 5.4483V6.65436H38.52V5.4483H42.4556ZM39.5737 3.75983H41.2559V10.336C41.2559 10.5391 41.2834 10.6957 41.3384 10.8057C41.3934 10.9158 41.4759 10.9898 41.5859 11.0279C41.696 11.066 41.8271 11.085 41.9795 11.085C42.0895 11.085 42.1911 11.0787 42.2842 11.066C42.3773 11.0533 42.4556 11.0406 42.519 11.0279L42.5254 12.2847C42.3857 12.3313 42.2271 12.3694 42.0493 12.399C41.8758 12.4286 41.679 12.4434 41.459 12.4434C41.0824 12.4434 40.7523 12.3799 40.4688 12.253C40.1852 12.1218 39.9652 11.9123 39.8086 11.6246C39.652 11.3326 39.5737 10.9475 39.5737 10.4693V3.75983ZM46.6577 12.4434C46.1372 12.4434 45.6696 12.3588 45.2549 12.1895C44.8402 12.0202 44.4868 11.7854 44.1948 11.4849C43.9071 11.1802 43.6849 10.8269 43.5283 10.4249C43.376 10.0186 43.2998 9.58274 43.2998 9.11725V8.86334C43.2998 8.33437 43.376 7.85406 43.5283 7.42242C43.6807 6.98655 43.8965 6.61204 44.1758 6.29889C44.4551 5.98574 44.7894 5.74453 45.1787 5.57526C45.568 5.40599 45.9976 5.32135 46.4673 5.32135C46.9539 5.32135 47.3835 5.40387 47.7559 5.56891C48.1283 5.72972 48.4393 5.95823 48.689 6.25446C48.9386 6.55068 49.127 6.90615 49.2539 7.32086C49.3809 7.73134 49.4443 8.18626 49.4443 8.68561V9.3902H44.0615V8.23492H47.7939V8.10797C47.7855 7.84137 47.7347 7.59804 47.6416 7.37799C47.5485 7.15371 47.4046 6.97597 47.21 6.84479C47.0153 6.70937 46.7635 6.64166 46.4546 6.64166C46.2049 6.64166 45.987 6.69668 45.8008 6.8067C45.6188 6.9125 45.4665 7.06484 45.3438 7.26373C45.2253 7.45839 45.1364 7.69114 45.0771 7.96198C45.0179 8.23281 44.9883 8.53326 44.9883 8.86334V9.11725C44.9883 9.40501 45.0264 9.67161 45.1025 9.91705C45.1829 10.1625 45.2993 10.3762 45.4517 10.5582C45.6082 10.7359 45.7944 10.8755 46.0103 10.9771C46.2303 11.0744 46.48 11.1231 46.7593 11.1231C47.1105 11.1231 47.4279 11.0554 47.7114 10.92C47.9992 10.7803 48.2489 10.5751 48.4604 10.3043L49.3047 11.1802C49.1608 11.3918 48.9661 11.595 48.7207 11.7896C48.4795 11.9843 48.1875 12.143 47.8447 12.2657C47.502 12.3842 47.1063 12.4434 46.6577 12.4434ZM50.606 11.4976C50.606 11.2437 50.6927 11.03 50.8662 10.8565C51.0397 10.683 51.2746 10.5963 51.5708 10.5963C51.867 10.5963 52.1019 10.683 52.2754 10.8565C52.4489 11.03 52.5356 11.2437 52.5356 11.4976C52.5356 11.7473 52.4489 11.9589 52.2754 12.1324C52.1019 12.3017 51.867 12.3863 51.5708 12.3863C51.2746 12.3863 51.0397 12.3017 50.8662 12.1324C50.6927 11.9589 50.606 11.7473 50.606 11.4976ZM50.6123 6.17194C50.6123 5.91803 50.6991 5.70433 50.8726 5.53082C51.0461 5.35732 51.2809 5.27057 51.5771 5.27057C51.8734 5.27057 52.1082 5.35732 52.2817 5.53082C52.4552 5.70433 52.542 5.91803 52.542 6.17194C52.542 6.42161 52.4552 6.6332 52.2817 6.8067C52.1082 6.97597 51.8734 7.06061 51.5771 7.06061C51.2809 7.06061 51.0461 6.97597 50.8726 6.8067C50.6991 6.6332 50.6123 6.42161 50.6123 6.17194ZM61.5747 3.04889V12.3165H59.8926V5.01031L57.6646 5.74664V4.38824L61.3843 3.04889H61.5747ZM70.9438 10.9962V12.3165H64.6851V11.1866L67.6875 7.94293C68.0007 7.58746 68.2482 7.27854 68.4302 7.01617C68.6121 6.7538 68.7412 6.51683 68.8174 6.30524C68.8978 6.08942 68.938 5.88418 68.938 5.68951C68.938 5.40599 68.8872 5.15843 68.7856 4.94684C68.6841 4.73102 68.536 4.56386 68.3413 4.44537C68.1509 4.32688 67.916 4.26764 67.6367 4.26764C67.3278 4.26764 67.0633 4.33958 66.8433 4.48346C66.6274 4.62311 66.4624 4.81777 66.3481 5.06744C66.2381 5.31712 66.1831 5.60276 66.1831 5.92438H64.501C64.501 5.37848 64.6279 4.88125 64.8818 4.43268C65.1357 3.97988 65.4997 3.61806 65.9736 3.34723C66.4476 3.0764 67.0104 2.94098 67.6621 2.94098C68.2969 2.94098 68.8343 3.04677 69.2744 3.25836C69.7145 3.46572 70.0488 3.76194 70.2773 4.14703C70.5059 4.53212 70.6201 4.99127 70.6201 5.52448C70.6201 5.8207 70.5715 6.11269 70.4741 6.40045C70.3768 6.68821 70.2393 6.97386 70.0615 7.25739C69.888 7.53668 69.6807 7.82021 69.4395 8.10797C69.1982 8.39573 68.9295 8.68984 68.6333 8.9903L66.8306 10.9962H70.9438ZM75.5396 7.69537V9.02203H72.0674V7.69537H75.5396ZM81.0938 10.8565V2.56647H82.7822V12.3165H81.2588L81.0938 10.8565ZM76.6821 8.9649V8.8316C76.6821 8.30686 76.7414 7.83079 76.8599 7.40338C76.9826 6.97174 77.1603 6.60146 77.3931 6.29254C77.6258 5.98362 77.9072 5.74453 78.2373 5.57526C78.5716 5.40599 78.9504 5.32135 79.3735 5.32135C79.784 5.32135 80.1416 5.40387 80.4463 5.56891C80.7552 5.73395 81.0176 5.96881 81.2334 6.2735C81.4535 6.57819 81.6291 6.94 81.7603 7.35895C81.8914 7.77366 81.9867 8.23069 82.0459 8.73004V9.09186C81.9867 9.57851 81.8914 10.025 81.7603 10.4312C81.6291 10.8375 81.4535 11.1929 81.2334 11.4976C81.0176 11.7981 80.7552 12.0308 80.4463 12.1959C80.1374 12.3609 79.7756 12.4434 79.3608 12.4434C78.9419 12.4434 78.5653 12.3567 78.231 12.1832C77.9009 12.0097 77.6195 11.7663 77.3867 11.4532C77.1582 11.14 76.9826 10.7719 76.8599 10.3487C76.7414 9.92552 76.6821 9.46425 76.6821 8.9649ZM78.3643 8.8316V8.9649C78.3643 9.26113 78.3896 9.53831 78.4404 9.79645C78.4912 10.0546 78.5737 10.2831 78.688 10.482C78.8022 10.6767 78.9482 10.829 79.126 10.939C79.3079 11.0491 79.528 11.1041 79.7861 11.1041C80.1162 11.1041 80.387 11.0321 80.5986 10.8882C80.8145 10.7401 80.9816 10.5391 81.1001 10.2852C81.2186 10.0271 81.2948 9.7372 81.3286 9.41559V8.41901C81.3117 8.1651 81.2673 7.93024 81.1953 7.71442C81.1276 7.4986 81.0303 7.3124 80.9033 7.15582C80.7806 6.99925 80.6283 6.87653 80.4463 6.78766C80.2643 6.69879 80.0485 6.65436 79.7988 6.65436C79.5407 6.65436 79.3206 6.71149 79.1387 6.82574C78.9567 6.93577 78.8086 7.09023 78.6943 7.28912C78.5801 7.48802 78.4954 7.71865 78.4404 7.98102C78.3896 8.24339 78.3643 8.52692 78.3643 8.8316ZM87.3843 12.4434C86.8638 12.4434 86.3962 12.3588 85.9814 12.1895C85.5667 12.0202 85.2134 11.7854 84.9214 11.4849C84.6336 11.1802 84.4115 10.8269 84.2549 10.4249C84.1025 10.0186 84.0264 9.58274 84.0264 9.11725V8.86334C84.0264 8.33437 84.1025 7.85406 84.2549 7.42242C84.4072 6.98655 84.623 6.61204 84.9023 6.29889C85.1816 5.98574 85.516 5.74453 85.9053 5.57526C86.2946 5.40599 86.7241 5.32135 87.1938 5.32135C87.6805 5.32135 88.11 5.40387 88.4824 5.56891C88.8548 5.72972 89.1659 5.95823 89.4155 6.25446C89.6652 6.55068 89.8535 6.90615 89.9805 7.32086C90.1074 7.73134 90.1709 8.18626 90.1709 8.68561V9.3902H84.7881V8.23492H88.5205V8.10797C88.512 7.84137 88.4613 7.59804 88.3682 7.37799C88.2751 7.15371 88.1312 6.97597 87.9365 6.84479C87.7419 6.70937 87.4901 6.64166 87.1812 6.64166C86.9315 6.64166 86.7135 6.69668 86.5273 6.8067C86.3454 6.9125 86.193 7.06484 86.0703 7.26373C85.9518 7.45839 85.863 7.69114 85.8037 7.96198C85.7445 8.23281 85.7148 8.53326 85.7148 8.86334V9.11725C85.7148 9.40501 85.7529 9.67161 85.8291 9.91705C85.9095 10.1625 86.0259 10.3762 86.1782 10.5582C86.3348 10.7359 86.521 10.8755 86.7368 10.9771C86.9569 11.0744 87.2065 11.1231 87.4858 11.1231C87.8371 11.1231 88.1545 11.0554 88.438 10.92C88.7257 10.7803 88.9754 10.5751 89.187 10.3043L90.0312 11.1802C89.8874 11.3918 89.6927 11.595 89.4473 11.7896C89.2061 11.9843 88.9141 12.143 88.5713 12.2657C88.2285 12.3842 87.8328 12.4434 87.3843 12.4434ZM94.1128 11.1231C94.3498 11.1231 94.5614 11.0766 94.7476 10.9835C94.9338 10.8904 95.0819 10.7592 95.1919 10.5899C95.3062 10.4206 95.3675 10.2239 95.376 9.99957H96.9565C96.9481 10.4651 96.8169 10.8819 96.563 11.2501C96.3091 11.6182 95.9705 11.9102 95.5474 12.126C95.1284 12.3376 94.6587 12.4434 94.1382 12.4434C93.6092 12.4434 93.1479 12.3546 92.7544 12.1768C92.3608 11.9991 92.0329 11.7515 91.7705 11.4341C91.5124 11.1168 91.3177 10.7486 91.1865 10.3297C91.0596 9.91071 90.9961 9.46214 90.9961 8.98395V8.78082C90.9961 8.30263 91.0596 7.85406 91.1865 7.43512C91.3177 7.01617 91.5124 6.64801 91.7705 6.33063C92.0329 6.01324 92.3608 5.76569 92.7544 5.58795C93.1479 5.41022 93.6071 5.32135 94.1318 5.32135C94.6862 5.32135 95.1729 5.42926 95.5918 5.64508C96.015 5.8609 96.3451 6.16559 96.582 6.55914C96.8232 6.9527 96.9481 7.41608 96.9565 7.94928H95.376C95.3675 7.70384 95.3125 7.48378 95.2109 7.28912C95.1094 7.09446 94.9655 6.93789 94.7793 6.8194C94.5931 6.70091 94.3667 6.64166 94.1001 6.64166C93.8166 6.64166 93.5796 6.70091 93.3892 6.8194C93.203 6.93789 93.057 7.10081 92.9512 7.30817C92.8496 7.51129 92.7777 7.73981 92.7354 7.99371C92.6973 8.24339 92.6782 8.50576 92.6782 8.78082V8.98395C92.6782 9.26324 92.6973 9.52985 92.7354 9.78375C92.7777 10.0377 92.8496 10.2662 92.9512 10.4693C93.057 10.6682 93.203 10.8269 93.3892 10.9454C93.5796 11.0639 93.8208 11.1231 94.1128 11.1231ZM101.413 7.69537V9.02203H97.9404V7.69537H101.413ZM109.017 10.9962V12.3165H102.758V11.1866L105.761 7.94293C106.074 7.58746 106.321 7.27854 106.503 7.01617C106.685 6.7538 106.814 6.51683 106.891 6.30524C106.971 6.08942 107.011 5.88418 107.011 5.68951C107.011 5.40599 106.96 5.15843 106.859 4.94684C106.757 4.73102 106.609 4.56386 106.415 4.44537C106.224 4.32688 105.989 4.26764 105.71 4.26764C105.401 4.26764 105.137 4.33958 104.917 4.48346C104.701 4.62311 104.536 4.81777 104.421 5.06744C104.311 5.31712 104.256 5.60276 104.256 5.92438H102.574C102.574 5.37848 102.701 4.88125 102.955 4.43268C103.209 3.97988 103.573 3.61806 104.047 3.34723C104.521 3.0764 105.084 2.94098 105.735 2.94098C106.37 2.94098 106.908 3.04677 107.348 3.25836C107.788 3.46572 108.122 3.76194 108.351 4.14703C108.579 4.53212 108.693 4.99127 108.693 5.52448C108.693 5.8207 108.645 6.11269 108.547 6.40045C108.45 6.68821 108.312 6.97386 108.135 7.25739C107.961 7.53668 107.754 7.82021 107.513 8.10797C107.271 8.39573 107.003 8.68984 106.707 8.9903L104.904 10.9962H109.017ZM116.304 6.90192V8.45709C116.304 9.16803 116.232 9.77529 116.088 10.2789C115.944 10.7825 115.737 11.195 115.466 11.5167C115.195 11.834 114.872 12.0689 114.495 12.2213C114.118 12.3694 113.7 12.4434 113.238 12.4434C112.87 12.4434 112.527 12.3969 112.21 12.3038C111.893 12.2064 111.607 12.0583 111.353 11.8594C111.103 11.6563 110.888 11.3982 110.706 11.085C110.528 10.7719 110.39 10.3974 110.293 9.96149C110.2 9.52561 110.153 9.02415 110.153 8.45709V6.90192C110.153 6.19098 110.225 5.58584 110.369 5.08649C110.517 4.58714 110.727 4.17877 110.998 3.86139C111.268 3.54401 111.592 3.31337 111.969 3.16949C112.345 3.02138 112.764 2.94733 113.226 2.94733C113.598 2.94733 113.941 2.99388 114.254 3.08698C114.571 3.18007 114.855 3.32607 115.104 3.52496C115.358 3.71962 115.574 3.97353 115.752 4.28668C115.93 4.5956 116.065 4.968 116.158 5.40387C116.256 5.83551 116.304 6.33486 116.304 6.90192ZM114.628 8.68561V6.66705C114.628 6.31158 114.607 6.00267 114.565 5.7403C114.527 5.47369 114.47 5.24729 114.394 5.0611C114.317 4.8749 114.222 4.72467 114.108 4.61041C113.994 4.49192 113.862 4.40517 113.714 4.35016C113.566 4.29515 113.403 4.26764 113.226 4.26764C113.006 4.26764 112.809 4.31207 112.635 4.40094C112.462 4.48558 112.316 4.62099 112.197 4.80719C112.079 4.99339 111.988 5.24095 111.924 5.54987C111.865 5.85455 111.835 6.22695 111.835 6.66705V8.68561C111.835 9.04108 111.854 9.35211 111.893 9.61871C111.935 9.88531 111.994 10.1138 112.07 10.3043C112.151 10.4947 112.246 10.6513 112.356 10.774C112.47 10.8925 112.601 10.9813 112.75 11.0406C112.898 11.0956 113.061 11.1231 113.238 11.1231C113.463 11.1231 113.659 11.0787 113.829 10.9898C114.002 10.9009 114.148 10.7613 114.267 10.5709C114.385 10.3762 114.474 10.1244 114.533 9.81549C114.597 9.50234 114.628 9.12571 114.628 8.68561ZM123.871 10.9962V12.3165H117.612V11.1866L120.614 7.94293C120.927 7.58746 121.175 7.27854 121.357 7.01617C121.539 6.7538 121.668 6.51683 121.744 6.30524C121.825 6.08942 121.865 5.88418 121.865 5.68951C121.865 5.40599 121.814 5.15843 121.712 4.94684C121.611 4.73102 121.463 4.56386 121.268 4.44537C121.078 4.32688 120.843 4.26764 120.563 4.26764C120.255 4.26764 119.99 4.33958 119.77 4.48346C119.554 4.62311 119.389 4.81777 119.275 5.06744C119.165 5.31712 119.11 5.60276 119.11 5.92438H117.428C117.428 5.37848 117.555 4.88125 117.809 4.43268C118.062 3.97988 118.426 3.61806 118.9 3.34723C119.374 3.0764 119.937 2.94098 120.589 2.94098C121.224 2.94098 121.761 3.04677 122.201 3.25836C122.641 3.46572 122.976 3.76194 123.204 4.14703C123.433 4.53212 123.547 4.99127 123.547 5.52448C123.547 5.8207 123.498 6.11269 123.401 6.40045C123.304 6.68821 123.166 6.97386 122.988 7.25739C122.815 7.53668 122.607 7.82021 122.366 8.10797C122.125 8.39573 121.856 8.68984 121.56 8.9903L119.757 10.9962H123.871ZM131.456 8.94586V10.2662H124.797L124.728 9.25055L128.644 3.07428H129.983L128.536 5.53082L126.435 8.94586H131.456ZM130.358 3.07428V12.3165H128.676V3.07428H130.358Z" fill="white"/>
<defs>
<clipPath id="clip0_5_25">
<rect width="14" height="13.9397" fill="white" transform="translate(0 0.316467)"/>
</clipPath>
</defs>
</svg>
