<svg width="14" height="14" viewBox="0 0 14 14" fill="none" xmlns="http://www.w3.org/2000/svg">
<g clip-path="url(#clip0_4_14471)">
<path fill-rule="evenodd" clip-rule="evenodd" d="M7 13.9752C10.866 13.9752 14 10.8547 14 7.00538C14 3.15604 10.866 0.0355225 7 0.0355225C3.13401 0.0355225 0 3.15604 0 7.00538C0 10.8547 3.13401 13.9752 7 13.9752ZM7.625 4.51615C7.625 4.17245 7.34518 3.89384 7 3.89384C6.65482 3.89384 6.375 4.17245 6.375 4.51615V7.00538C6.375 7.15096 6.42626 7.29193 6.51986 7.40378L9.01986 10.3908C9.24084 10.6549 9.63494 10.6905 9.90012 10.4705C10.1653 10.2505 10.2011 9.85811 9.98014 9.59407L7.625 6.78008V4.51615Z" fill="white"/>
</g>
<defs>
<clipPath id="clip0_4_14471">
<rect width="14" height="13.9397" fill="white" transform="translate(0 0.0355225)"/>
</clipPath>
</defs>
</svg>
