<svg width="29" height="25" viewBox="0 0 29 25" fill="none" xmlns="http://www.w3.org/2000/svg">
<path fill-rule="evenodd" clip-rule="evenodd" d="M14.4726 -0.00292969C13.7319 -0.00292969 12.9973 0.125494 12.3101 0.376132C11.623 0.626775 10.9949 0.995489 10.463 1.46388C9.931 1.93237 9.50509 2.49203 9.21309 3.11283C9.00935 3.54599 8.87401 4.00216 8.81077 4.46818H4.67877C3.5742 4.46818 2.67877 5.36361 2.67877 6.46818V22.0182C2.67877 23.1228 3.5742 24.0182 4.67877 24.0182H24.2665C25.3711 24.0182 26.2665 23.1228 26.2665 22.0182V6.46818C26.2665 5.36361 25.3711 4.46818 24.2665 4.46818H20.1345C20.0713 4.00216 19.936 3.54599 19.7322 3.11283C19.4402 2.49203 19.0143 1.93237 18.4823 1.46388C17.9504 0.995489 17.3223 0.626775 16.6352 0.376132C15.948 0.125494 15.2134 -0.00292969 14.4726 -0.00292969ZM19.1227 4.46818C19.0672 4.15057 18.9684 3.83844 18.8273 3.53846C18.5963 3.04742 18.2557 2.59683 17.8214 2.21436C17.387 1.83179 16.8679 1.52548 16.2925 1.31558C15.717 1.10568 15.0985 0.99707 14.4726 0.99707C13.8468 0.99707 13.2283 1.10568 12.6528 1.31558C12.0774 1.52548 11.5583 1.83179 11.1239 2.21436C10.6896 2.59683 10.349 3.04742 10.118 3.53846C9.97689 3.83844 9.87807 4.15057 9.82256 4.46818H19.1227ZM4.67877 5.46818H24.2665C24.8188 5.46818 25.2665 5.91589 25.2665 6.46818V22.0182C25.2665 22.5705 24.8188 23.0182 24.2665 23.0182H4.67877C4.12649 23.0182 3.67877 22.5705 3.67877 22.0182V6.46818C3.67877 5.91589 4.12649 5.46818 4.67877 5.46818Z" fill="black"/>
</svg>
