<svg width="25" height="24" viewBox="0 0 25 24" fill="none" xmlns="http://www.w3.org/2000/svg">
<rect width="24.4011" height="24" rx="12" />
<path d="M20.3342 21V19C20.3342 17.9391 19.9058 16.9217 19.1431 16.1716C18.3804 15.4214 17.346 15 16.2674 15H8.13369C7.05509 15 6.02067 15.4214 5.25799 16.1716C4.4953 16.9217 4.06683 17.9391 4.06683 19V21" stroke="black" stroke-linecap="round" stroke-linejoin="round"/>
<path d="M12.2006 11C14.4466 11 16.2674 9.20914 16.2674 7C16.2674 4.79086 14.4466 3 12.2006 3C9.95452 3 8.13373 4.79086 8.13373 7C8.13373 9.20914 9.95452 11 12.2006 11Z" stroke="black" stroke-linecap="round" stroke-linejoin="round"/>
</svg>
