<svg width="14" height="15" viewBox="0 0 14 15" fill="none" xmlns="http://www.w3.org/2000/svg">
<path d="M11.4333 12.448L7.75833 8.78887C7.46667 9.0212 7.13125 9.20513 6.75208 9.34065C6.37292 9.47618 5.96944 9.54394 5.54167 9.54394C4.48194 9.54394 3.58507 9.1785 2.85104 8.44764C2.11701 7.71677 1.75 6.82376 1.75 5.7686C1.75 4.71344 2.11701 3.82042 2.85104 3.08956C3.58507 2.35869 4.48194 1.99326 5.54167 1.99326C6.60139 1.99326 7.49826 2.35869 8.23229 3.08956C8.96632 3.82042 9.33333 4.71344 9.33333 5.7686C9.33333 6.19453 9.26528 6.59627 9.12917 6.9738C8.99306 7.35134 8.80833 7.68531 8.575 7.97572L12.25 11.6349L11.4333 12.448ZM5.54167 8.38229C6.27083 8.38229 6.89062 8.12818 7.40104 7.61997C7.91146 7.11175 8.16667 6.49462 8.16667 5.7686C8.16667 5.04257 7.91146 4.42545 7.40104 3.91723C6.89062 3.40901 6.27083 3.1549 5.54167 3.1549C4.8125 3.1549 4.19271 3.40901 3.68229 3.91723C3.17188 4.42545 2.91667 5.04257 2.91667 5.7686C2.91667 6.49462 3.17188 7.11175 3.68229 7.61997C4.19271 8.12818 4.8125 8.38229 5.54167 8.38229Z" fill="white"/>
</svg>
